<svg width="199" height="22" viewBox="0 0 199 22" fill="none" xmlns="http://www.w3.org/2000/svg">
<g clip-path="url(#clip0_80_6252)">
<path d="M18.5698 14.3809C18.5174 14.2404 13.8749 5.00221 13.8051 4.86171C13.5607 4.26456 13.1244 3.75523 12.5484 3.40397C11.0998 2.56094 9.24979 3.0527 8.41204 4.51044C7.83608 5.51154 7.87099 6.68827 8.42949 7.61911C8.48185 7.74206 12.9149 16.5939 13.0022 16.7344C13.0546 16.8749 13.1244 16.9978 13.1942 17.1383C13.4385 17.7355 13.8749 18.2448 14.4508 18.5961C15.8994 19.4391 17.7495 18.9649 18.5872 17.5071C19.1806 16.5061 19.1283 15.3118 18.5698 14.3809Z" fill="#0EF387"/>
<path d="M13.212 8.12843C13.7182 7.58397 14.0323 6.84632 14.0323 6.03842C14.0323 4.36992 12.6884 3 11.0129 3C9.98319 3 9.07563 3.50933 8.53458 4.29967C8.42986 4.40505 0.907563 13.7486 0.820297 13.8716C0.314156 14.416 0 15.1537 0 15.9616C0 17.6476 1.36134 19 3.01939 19C4.04913 19 4.95669 18.4907 5.49774 17.7003C5.60246 17.5774 13.1422 8.25137 13.212 8.12843Z" fill="#FAFAFA"/>
<path d="M26.1797 8.12843C26.6858 7.58397 27 6.84632 27 6.03842C27 4.35236 25.6386 3 23.9806 3C22.9508 3 22.0433 3.50933 21.5022 4.29967C21.3975 4.40505 13.8578 13.7486 13.7705 13.8716C13.2644 14.416 12.9502 15.1537 12.9502 15.9616C12.9502 17.6476 14.3115 19 15.9696 19C16.9993 19 17.9069 18.4907 18.4479 17.7003C18.5701 17.5774 26.0924 8.25137 26.1797 8.12843Z" fill="#FAFAFA"/>
</g>
<path d="M36.1378 18V4.90909H44.9588V7.19105H38.9055V10.3104H44.505V12.5923H38.9055V15.718H44.9844V18H36.1378ZM49.3944 4.90909L52.0344 9.37074H52.1366L54.7893 4.90909H57.915L53.92 11.4545L58.0045 18H54.8213L52.1366 13.532H52.0344L49.3497 18H46.1792L50.2765 11.4545L46.2559 4.90909H49.3944ZM59.3065 18V4.90909H64.4712C65.4641 4.90909 66.31 5.09872 67.0089 5.47798C67.7077 5.85298 68.2404 6.375 68.6069 7.04403C68.9776 7.70881 69.163 8.47585 69.163 9.34517C69.163 10.2145 68.9755 10.9815 68.6005 11.6463C68.2255 12.3111 67.6822 12.8288 66.9705 13.1996C66.2631 13.5703 65.4066 13.7557 64.4009 13.7557H61.109V11.5376H63.9535C64.4861 11.5376 64.9251 11.446 65.2702 11.2628C65.6197 11.0753 65.8796 10.8175 66.0501 10.4893C66.2248 10.157 66.3121 9.77557 66.3121 9.34517C66.3121 8.91051 66.2248 8.53125 66.0501 8.20739C65.8796 7.87926 65.6197 7.62571 65.2702 7.44673C64.9208 7.26349 64.4776 7.17188 63.9407 7.17188H62.0742V18H59.3065ZM70.6008 18V4.90909H79.4218V7.19105H73.3685V10.3104H78.9679V12.5923H73.3685V15.718H79.4473V18H70.6008ZM92.2118 4.90909V18H89.8212L84.1259 9.76065H84.03V18H81.2622V4.90909H83.6912L89.3418 13.142H89.4568V4.90909H92.2118ZM101.24 8.67401C101.189 8.15838 100.97 7.75781 100.582 7.4723C100.194 7.18679 99.6677 7.04403 99.0029 7.04403C98.5512 7.04403 98.1698 7.10795 97.8587 7.2358C97.5477 7.35937 97.309 7.53196 97.1428 7.75355C96.9809 7.97514 96.8999 8.22656 96.8999 8.50781C96.8914 8.74219 96.9404 8.94673 97.0469 9.12145C97.1577 9.29616 97.309 9.44744 97.5008 9.57528C97.6925 9.69886 97.9141 9.80753 98.1656 9.90128C98.417 9.99077 98.6854 10.0675 98.971 10.1314L100.147 10.4126C100.718 10.5405 101.242 10.7109 101.72 10.924C102.197 11.1371 102.61 11.3991 102.96 11.7102C103.309 12.0213 103.58 12.3878 103.771 12.8097C103.967 13.2315 104.068 13.7152 104.072 14.2607C104.068 15.0618 103.863 15.7564 103.458 16.3445C103.058 16.9283 102.478 17.3821 101.72 17.706C100.965 18.0256 100.055 18.1854 98.9901 18.1854C97.9333 18.1854 97.0129 18.0234 96.2288 17.6996C95.4489 17.3757 94.8396 16.8963 94.4006 16.2614C93.966 15.6222 93.738 14.8317 93.7167 13.8899H96.395C96.4248 14.3288 96.5505 14.6953 96.7721 14.9893C96.9979 15.2791 97.2984 15.4986 97.6734 15.6477C98.0526 15.7926 98.4809 15.8651 98.9582 15.8651C99.4269 15.8651 99.8339 15.7969 100.179 15.6605C100.528 15.5241 100.799 15.3345 100.991 15.0916C101.183 14.8487 101.278 14.5696 101.278 14.2543C101.278 13.9602 101.191 13.7131 101.016 13.5128C100.846 13.3125 100.595 13.142 100.262 13.0014C99.934 12.8608 99.5313 12.733 99.054 12.6179L97.6286 12.2599C96.5249 11.9915 95.6535 11.5717 95.0143 11.0007C94.3751 10.4297 94.0576 9.66051 94.0619 8.69318C94.0576 7.90057 94.2685 7.2081 94.6947 6.61577C95.1251 6.02344 95.7153 5.56108 96.4653 5.22869C97.2153 4.89631 98.0675 4.73011 99.0221 4.73011C99.9937 4.73011 100.842 4.89631 101.566 5.22869C102.295 5.56108 102.862 6.02344 103.266 6.61577C103.671 7.2081 103.88 7.89418 103.893 8.67401H101.24ZM105.573 18V4.90909H114.395V7.19105H108.341V10.3104H113.941V12.5923H108.341V15.718H114.42V18H105.573ZM115.736 7.19105V4.90909H126.488V7.19105H122.48V18H119.744V7.19105H115.736ZM127.898 18V4.90909H133.063C134.052 4.90909 134.896 5.08594 135.594 5.43963C136.298 5.78906 136.832 6.28551 137.199 6.92898C137.57 7.56818 137.755 8.32031 137.755 9.18537C137.755 10.0547 137.567 10.8026 137.192 11.429C136.817 12.0511 136.274 12.5284 135.562 12.8608C134.855 13.1932 133.999 13.3594 132.993 13.3594H129.535V11.1349H132.545C133.074 11.1349 133.513 11.0625 133.862 10.9176C134.212 10.7727 134.472 10.5554 134.642 10.2656C134.817 9.97585 134.904 9.61577 134.904 9.18537C134.904 8.75071 134.817 8.38423 134.642 8.08594C134.472 7.78764 134.209 7.56179 133.856 7.40838C133.506 7.25071 133.065 7.17188 132.533 7.17188H130.666V18H127.898ZM134.968 12.0426L138.222 18H135.166L131.983 12.0426H134.968ZM141.607 18H138.641L143.161 4.90909H146.727L151.24 18H148.274L144.995 7.90057H144.893L141.607 18ZM141.422 12.8544H148.428V15.0149H141.422V12.8544ZM163.391 9.49219H160.591C160.54 9.12997 160.436 8.80824 160.278 8.52699C160.12 8.24148 159.918 7.99858 159.671 7.7983C159.424 7.59801 159.138 7.4446 158.814 7.33807C158.495 7.23153 158.147 7.17827 157.772 7.17827C157.095 7.17827 156.505 7.34659 156.002 7.68324C155.499 8.01562 155.109 8.50142 154.832 9.14062C154.555 9.77557 154.417 10.5469 154.417 11.4545C154.417 12.3878 154.555 13.1719 154.832 13.8068C155.113 14.4418 155.505 14.9212 156.008 15.245C156.511 15.5689 157.093 15.7308 157.753 15.7308C158.124 15.7308 158.467 15.6818 158.782 15.5838C159.102 15.4858 159.385 15.343 159.632 15.1555C159.88 14.9638 160.084 14.7315 160.246 14.4588C160.412 14.1861 160.527 13.875 160.591 13.5256L163.391 13.5384C163.319 14.1392 163.137 14.7188 162.848 15.277C162.562 15.831 162.176 16.3274 161.691 16.7663C161.209 17.201 160.634 17.5462 159.965 17.8018C159.3 18.0533 158.548 18.179 157.708 18.179C156.541 18.179 155.497 17.9148 154.576 17.3864C153.66 16.858 152.936 16.093 152.403 15.0916C151.875 14.0902 151.61 12.8778 151.61 11.4545C151.61 10.027 151.879 8.8125 152.416 7.81108C152.953 6.80966 153.681 6.04687 154.602 5.52273C155.522 4.99432 156.558 4.73011 157.708 4.73011C158.467 4.73011 159.17 4.83665 159.818 5.04972C160.47 5.26278 161.047 5.57386 161.55 5.98295C162.053 6.38778 162.462 6.88423 162.777 7.4723C163.097 8.06037 163.301 8.73366 163.391 9.49219ZM165.016 18V4.90909H167.783V10.6811H167.956L172.667 4.90909H175.984L171.126 10.7706L176.042 18H172.731L169.145 12.6179L167.783 14.2798V18H165.016ZM177.066 18V4.90909H185.887V7.19105H179.834V10.3104H185.433V12.5923H179.834V15.718H185.912V18H177.066ZM187.727 18V4.90909H192.892C193.881 4.90909 194.724 5.08594 195.423 5.43963C196.126 5.78906 196.661 6.28551 197.028 6.92898C197.398 7.56818 197.584 8.32031 197.584 9.18537C197.584 10.0547 197.396 10.8026 197.021 11.429C196.646 12.0511 196.103 12.5284 195.391 12.8608C194.684 13.1932 193.827 13.3594 192.822 13.3594H189.364V11.1349H192.374C192.903 11.1349 193.342 11.0625 193.691 10.9176C194.041 10.7727 194.3 10.5554 194.471 10.2656C194.646 9.97585 194.733 9.61577 194.733 9.18537C194.733 8.75071 194.646 8.38423 194.471 8.08594C194.3 7.78764 194.038 7.56179 193.685 7.40838C193.335 7.25071 192.894 7.17188 192.362 7.17188H190.495V18H187.727ZM194.797 12.0426L198.05 18H194.995L191.812 12.0426H194.797Z" fill="#FAFAFA"/>
<defs>
<clipPath id="clip0_80_6252">
<rect width="27" height="16" fill="white" transform="translate(0 3)"/>
</clipPath>
</defs>
</svg>
